<svg version="1.1" xmlns="http://www.w3.org/2000/svg" width="32" height="32" viewBox="0 0 32 32">
<title>codepen</title>
    <path d="M32,10.909L31.976,10.793L31.953,10.726C31.94,10.694 31.929,10.659 31.913,10.626C31.909,10.602 31.893,10.581 31.886,10.559L31.839,10.47L31.799,10.403L31.74,10.323L31.679,10.263L31.599,10.203L31.538,10.163L31.458,10.104L31.399,10.051L31.379,10.024L16.772,0.252C16.309,-0.057 15.711,-0.057 15.249,0.252L0.444,10.135L0.393,10.188L0.326,10.263L0.277,10.323L0.21,10.403C0.183,10.426 0.17,10.443 0.17,10.464L0.103,10.544L0.076,10.624C0.049,10.637 0.049,10.677 0.036,10.717L0.023,10.784C-0.002,10.825 -0.002,10.865 -0.002,10.905L-0.002,20.901C-0.002,20.96 0.002,21.021 0.011,21.081L0.024,21.142C0.031,21.182 0.037,21.222 0.051,21.257L0.071,21.324C0.084,21.36 0.092,21.395 0.107,21.424L0.136,21.491C0.136,21.504 0.156,21.544 0.176,21.571L0.216,21.624C0.236,21.637 0.256,21.677 0.276,21.704L0.316,21.757L0.369,21.81C0.382,21.827 0.382,21.85 0.409,21.85L0.489,21.906L0.542,21.946L0.555,21.965L15.182,31.738C15.401,31.898 15.682,31.955 15.942,31.955C16.202,31.955 16.462,31.875 16.702,31.715L31.579,21.84L31.648,21.763L31.692,21.703L31.745,21.623L31.785,21.556L31.825,21.463L31.846,21.394L31.886,21.291L31.906,21.231L31.946,21.124L31.946,11.124C31.946,11.057 31.946,10.997 31.925,10.937L31.906,10.877L31.965,10.881L32,10.909ZM16.013,19.283L11.146,16.03L16.013,12.774L20.88,16.027L16.013,19.283ZM14.635,10.384L8.671,14.371L3.854,11.15L14.635,3.963L14.635,10.384ZM6.195,16.028L2.752,18.335L2.752,13.734L6.195,16.028ZM8.671,17.695L14.635,21.682L14.635,28.109L3.854,20.921L8.678,17.698L8.671,17.695ZM17.387,21.681L23.352,17.708L28.169,20.935L17.386,28.122L17.387,21.681ZM25.827,16.041L29.271,13.748L29.271,18.356L25.827,16.041ZM23.353,14.388L17.389,10.4L17.389,3.96L28.169,11.147L23.353,14.367L23.353,14.388Z" style="fill:rgb(255,169,0);fill-rule:nonzero;"/>
</svg>
