<svg version="1.1" xmlns="http://www.w3.org/2000/svg" width="32" height="32" viewBox="0 0 32 32">
<title>linkedin</title>
    <path d="M29,0L3,0C1.35,0 0,1.35 0,3L0,29C0,30.65 1.35,32 3,32L29,32C30.65,32 32,30.65 32,29L32,3C32,1.35 30.65,0 29,0ZM12,26L8,26L8,12L12,12L12,26ZM10,10C8.894,10 8,9.106 8,8C8,6.894 8.894,6 10,6C11.106,6 12,6.894 12,8C12,9.106 11.106,10 10,10ZM26,26L22,26L22,18C22,16.894 21.106,16 20,16C18.894,16 18,16.894 18,18L18,26L14,26L14,12L18,12L18,14.481C18.825,13.35 20.087,12 21.5,12C23.988,12 26,14.238 26,17L26,26Z" style="fill:rgb(255,169,0);fill-rule:nonzero;"/>
</svg>
