<?xml version="1.0" encoding="UTF-8" standalone="no"?>
<!DOCTYPE svg PUBLIC "-//W3C//DTD SVG 1.1//EN" "http://www.w3.org/Graphics/SVG/1.1/DTD/svg11.dtd">
<svg width="100%" height="100%" viewBox="0 0 300 300" version="1.1" xmlns="http://www.w3.org/2000/svg" xmlns:xlink="http://www.w3.org/1999/xlink" xml:space="preserve" xmlns:serif="http://www.serif.com/" style="fill-rule:evenodd;clip-rule:evenodd;stroke-linejoin:round;stroke-miterlimit:2;">
    <g transform="matrix(1,0,0,1,4,4)">
        <path d="M145.5,-1C226.356,-1 292,64.644 292,145.5C292,226.356 226.356,292 145.5,292C64.644,292 -1,226.356 -1,145.5C-1,64.644 64.644,-1 145.5,-1ZM145.5,9C220.836,9 282,70.164 282,145.5C282,220.836 220.836,282 145.5,282C70.164,282 9,220.836 9,145.5C9,70.164 70.164,9 145.5,9Z" style="fill:rgb(178,210,255);"/>
    </g>
    <g id="prototype" transform="matrix(0.333984,0,0,0.333984,149.5,185.5)">
        <g transform="matrix(1,0,0,1,-256,-256)">
            <g id="_x35_92_x2C__Blueprint_x2C__design_x2C__drawing_x2C__plan_x2C__prototype">
                <path d="M485.999,92.225L52.163,92.225L52.163,406.461L485.999,406.461L485.999,92.225ZM460.422,115.554L254.54,115.554L254.54,383.102L460.422,383.102L460.422,115.554ZM250.978,108.371L464.012,108.371C465.968,108.371 467.575,109.976 467.575,111.963L467.575,386.693C467.575,388.679 465.969,390.285 464.012,390.285L250.978,390.285C248.993,390.285 247.386,388.68 247.386,386.693L247.386,111.963C247.386,109.977 248.993,108.371 250.978,108.371ZM69.273,108.371L229.517,108.371C231.502,108.371 233.107,109.976 233.107,111.963L233.107,152.49C233.107,154.475 231.502,156.082 229.517,156.082L69.273,156.082C67.289,156.082 65.683,154.476 65.683,152.49L65.683,111.963C65.683,109.977 67.289,108.371 69.273,108.371ZM225.926,115.554L72.866,115.554L72.866,148.928L225.926,148.928L225.926,115.554ZM69.273,170.39L104.458,170.39C106.444,170.39 108.05,172.025 108.05,173.981L108.05,225.838C108.05,227.824 106.445,229.43 104.458,229.43L69.273,229.43C67.289,229.43 65.683,227.825 65.683,225.838L65.683,173.98C65.683,172.024 67.289,170.39 69.273,170.39ZM100.868,177.572L72.866,177.572L72.866,222.246L100.868,222.246L100.868,177.572ZM122.913,186.683C120.927,186.683 119.321,185.077 119.321,183.09C119.321,181.135 120.926,179.5 122.913,179.5L213.546,179.5C215.531,179.5 217.136,181.135 217.136,183.09C217.136,185.076 215.531,186.683 213.546,186.683L122.913,186.683ZM122.913,203.501C120.927,203.501 119.321,201.895 119.321,199.909C119.321,197.953 120.926,196.318 122.913,196.318L213.546,196.318C215.531,196.318 217.136,197.953 217.136,199.909C217.136,201.894 215.531,203.501 213.546,203.501L122.913,203.501ZM122.913,220.319C120.927,220.319 119.321,218.714 119.321,216.728C119.321,214.771 120.926,213.136 122.913,213.136L213.546,213.136C215.531,213.136 217.136,214.771 217.136,216.728C217.136,218.713 215.531,220.319 213.546,220.319L122.913,220.319ZM69.273,288.849L86.852,288.849C88.837,288.849 90.442,290.455 90.442,292.441L90.442,318.37C90.442,320.326 88.837,321.961 86.852,321.961L69.273,321.961C67.289,321.961 65.683,320.326 65.683,318.37L65.683,292.44C65.683,290.455 67.289,288.849 69.273,288.849ZM83.289,296.031L72.866,296.031L72.866,314.777L83.289,314.777L83.289,296.031ZM96.079,302.368C94.122,302.368 92.517,300.762 92.517,298.775C92.517,296.82 94.122,295.213 96.079,295.213L141.395,295.213C143.38,295.213 144.985,296.819 144.985,298.775C144.985,300.761 143.38,302.368 141.395,302.368L96.079,302.368ZM96.079,315.594C94.122,315.594 92.517,313.96 92.517,312.004C92.517,310.018 94.122,308.412 96.079,308.412L141.395,308.412C143.38,308.412 144.985,310.017 144.985,312.004C144.985,313.96 143.38,315.594 141.395,315.594L96.079,315.594ZM159.703,288.849L177.31,288.849C179.267,288.849 180.872,290.455 180.872,292.441L180.872,318.37C180.872,320.326 179.267,321.961 177.31,321.961L159.703,321.961C157.717,321.961 156.111,320.326 156.111,318.37L156.111,292.44C156.111,290.455 157.716,288.849 159.703,288.849ZM173.718,296.031L163.295,296.031L163.295,314.777L173.718,314.777L173.718,296.031ZM186.507,302.368C184.55,302.368 182.944,300.762 182.944,298.775C182.944,296.82 184.55,295.213 186.507,295.213L231.823,295.213C233.809,295.213 235.415,296.819 235.415,298.775C235.415,300.761 233.81,302.368 231.823,302.368L186.507,302.368ZM186.507,315.594C184.55,315.594 182.944,313.96 182.944,312.004C182.944,310.018 184.55,308.412 186.507,308.412L231.823,308.412C233.809,308.412 235.415,310.017 235.415,312.004C235.415,313.96 233.81,315.594 231.823,315.594L186.507,315.594ZM69.273,341.873L86.852,341.873C88.837,341.873 90.442,343.48 90.442,345.465L90.442,371.394C90.442,373.379 88.837,374.985 86.852,374.985L69.273,374.985C67.289,374.985 65.683,373.38 65.683,371.394L65.683,345.465C65.683,343.48 67.289,341.873 69.273,341.873ZM83.289,349.057L72.866,349.057L72.866,367.803L83.289,367.803L83.289,349.057ZM96.079,355.422C94.122,355.422 92.517,353.787 92.517,351.831C92.517,349.846 94.122,348.238 96.079,348.238L141.395,348.238C143.38,348.238 144.985,349.845 144.985,351.831C144.985,353.787 143.38,355.422 141.395,355.422L96.079,355.422ZM96.079,368.619C94.122,368.619 92.517,367.014 92.517,365.028C92.517,363.042 94.122,361.437 96.079,361.437L141.395,361.437C143.38,361.437 144.985,363.042 144.985,365.028C144.985,367.014 143.38,368.619 141.395,368.619L96.079,368.619ZM159.703,341.873L177.31,341.873C179.267,341.873 180.872,343.48 180.872,345.465L180.872,371.394C180.872,373.379 179.267,374.985 177.31,374.985L159.703,374.985C157.717,374.985 156.111,373.38 156.111,371.394L156.111,345.465C156.111,343.48 157.716,341.873 159.703,341.873ZM173.718,349.057L163.295,349.057L163.295,367.803L173.718,367.803L173.718,349.057ZM186.507,355.422C184.55,355.422 182.944,353.787 182.944,351.831C182.944,349.846 184.55,348.238 186.507,348.238L231.823,348.238C233.809,348.238 235.415,349.845 235.415,351.831C235.415,353.787 233.81,355.422 231.823,355.422L186.507,355.422ZM186.507,368.619C184.55,368.619 182.944,367.014 182.944,365.028C182.944,363.042 184.55,361.437 186.507,361.437L231.823,361.437C233.809,361.437 235.415,363.042 235.415,365.028C235.415,367.014 233.81,368.619 231.823,368.619L186.507,368.619ZM361.087,152.986L398.373,131.438L361.087,131.438L361.087,152.986ZM361.087,182.477L445.704,133.599L445.704,131.439L412.68,131.439L361.087,161.251L361.087,182.477ZM361.087,211.969L445.704,163.09L445.704,141.861L361.087,190.741L361.087,211.969ZM361.087,241.43L445.704,192.58L445.704,171.353L361.087,220.231L361.087,241.43ZM361.087,270.921L445.704,222.071L445.704,200.843L361.087,249.693L361.087,270.921ZM361.087,300.411L445.704,251.562L445.704,230.333L361.087,279.183L361.087,300.411ZM361.087,329.902L445.704,281.052L445.704,259.823L361.087,308.673L361.087,329.902ZM361.087,359.393L445.704,310.514L445.704,289.317L361.087,338.167L361.087,359.393ZM445.704,348.268L412.915,367.219L445.704,367.219L445.704,348.268ZM398.607,367.219L445.704,340.005L445.704,318.777L361.847,367.218L398.607,367.218L398.607,367.219ZM353.902,131.438L269.256,131.438L269.256,367.218L353.902,367.218L353.902,131.438ZM265.665,124.285L449.296,124.285C451.281,124.285 452.889,125.89 452.889,127.875L452.889,370.81C452.889,372.766 451.282,374.402 449.296,374.402L265.665,374.402C263.679,374.402 262.073,372.766 262.073,370.81L262.073,127.875C262.073,125.891 263.679,124.285 265.665,124.285ZM325.143,138.855C325.143,136.898 326.748,135.263 328.735,135.263C330.719,135.263 332.327,136.898 332.327,138.855L332.327,144.723L338.195,144.723C340.181,144.723 341.787,146.358 341.787,148.314C341.787,150.3 340.182,151.906 338.195,151.906L332.327,151.906L332.327,157.775C332.327,159.761 330.72,161.367 328.735,161.367C326.749,161.367 325.143,159.762 325.143,157.775L325.143,151.906L319.275,151.906C317.289,151.906 315.683,150.301 315.683,148.314C315.683,146.358 317.288,144.723 319.275,144.723L325.143,144.723L325.143,138.855ZM278.338,358.459C276.352,358.459 274.746,356.854 274.746,354.867C274.746,352.911 276.351,351.304 278.338,351.304L297.258,351.304C299.244,351.304 300.85,352.91 300.85,354.867C300.85,356.853 299.245,358.459 297.258,358.459L278.338,358.459ZM59.931,424.535C57.974,424.535 56.369,422.93 56.369,420.944C56.369,418.988 57.974,417.352 59.931,417.352L350.02,417.352C351.977,417.352 353.583,418.988 353.583,420.944C353.583,422.929 351.978,424.535 350.02,424.535L59.931,424.535ZM229.809,442.229C227.825,442.229 226.217,440.594 226.217,438.637C226.217,436.653 227.824,435.047 229.809,435.047L430.521,435.047C432.507,435.047 434.113,436.652 434.113,438.637C434.113,440.594 432.508,442.229 430.521,442.229L229.809,442.229ZM451.077,442.229C449.091,442.229 447.485,440.594 447.485,438.637C447.485,436.653 449.09,435.047 451.077,435.047L476.158,435.047C478.144,435.047 479.75,436.652 479.75,438.637C479.75,440.594 478.145,442.229 476.158,442.229L451.077,442.229ZM48.513,441.791C46.528,441.791 44.923,440.186 44.923,438.201C44.923,436.244 46.528,434.609 48.513,434.609L143.643,434.609C145.6,434.609 147.205,436.244 147.205,438.201C147.205,440.185 145.6,441.791 143.643,441.791L48.513,441.791ZM48.573,85.041L459.837,85.041L459.837,69.771L26.001,69.771L26.001,384.038L44.98,384.038L44.98,88.633C44.981,86.648 46.586,85.041 48.573,85.041Z" style="fill:rgb(178,210,255);fill-rule:nonzero;"/>
            </g>
        </g>
    </g>
    <g id="gear" transform="matrix(2.8125,0,0,2.8125,150,75)">
        <g transform="matrix(1,0,0,1,-16,-16)">
            <g transform="matrix(0.264583,0,0,0.264583,0,0)">
                <g id="layer1">
                    <path id="path940" d="M52.913,3.78C51.286,3.779 49.841,4.819 49.326,6.363L45.487,17.879C43.937,18.425 42.421,19.05 40.94,19.761L30.081,14.336C28.626,13.608 26.869,13.894 25.719,15.044L15.03,25.733C13.879,26.883 13.594,28.641 14.321,30.096L19.739,40.933C19.026,42.421 18.396,43.944 17.849,45.502L6.348,49.341C4.805,49.856 3.764,51.301 3.765,52.928L3.765,68.046C3.764,69.674 4.805,71.119 6.348,71.634L17.886,75.48C18.43,77.02 19.055,78.525 19.761,79.998L14.321,90.878C13.594,92.334 13.879,94.091 15.03,95.241L25.719,105.937C26.869,107.088 28.626,107.373 30.081,106.646L40.94,101.213C42.42,101.92 43.932,102.545 45.48,103.088L49.326,114.619C49.841,116.162 51.286,117.203 52.913,117.202L68.031,117.202C69.659,117.203 71.104,116.162 71.619,114.619L75.465,103.066C77.001,102.525 78.506,101.902 79.975,101.198L90.864,106.646C92.319,107.373 94.076,107.088 95.226,105.937L105.915,95.241C107.066,94.091 107.351,92.334 106.624,90.878L101.198,80.027C101.91,78.543 102.535,77.025 103.081,75.472L114.596,71.634C116.14,71.119 117.181,69.674 117.18,68.046L117.18,52.928C117.181,51.301 116.14,49.856 114.596,49.341L103.073,45.502C102.528,43.955 101.901,42.441 101.191,40.962L106.624,30.096C107.351,28.641 107.066,26.883 105.915,25.733L95.226,15.044C94.076,13.894 92.319,13.608 90.864,14.336L80.034,19.747C78.541,19.032 77.013,18.404 75.45,17.857L71.619,6.363C71.104,4.819 69.659,3.779 68.031,3.78L52.913,3.78ZM60.458,34.008C75.025,34.008 86.937,45.92 86.937,60.487C86.937,75.054 75.025,86.937 60.458,86.937C45.891,86.937 34.008,75.054 34.008,60.487C34.008,45.92 45.891,34.008 60.458,34.008Z" style="fill:rgb(178,210,255);fill-rule:nonzero;"/>
                </g>
            </g>
        </g>
    </g>
</svg>
