<?xml version="1.0" encoding="UTF-8" standalone="no"?>
<!DOCTYPE svg PUBLIC "-//W3C//DTD SVG 1.1//EN" "http://www.w3.org/Graphics/SVG/1.1/DTD/svg11.dtd">
<svg width="100%" height="100%" viewBox="0 0 300 300" version="1.1" xmlns="http://www.w3.org/2000/svg" xmlns:xlink="http://www.w3.org/1999/xlink" xml:space="preserve" xmlns:serif="http://www.serif.com/" style="fill-rule:evenodd;clip-rule:evenodd;stroke-linejoin:round;stroke-miterlimit:2;">
    <g transform="matrix(1,0,0,1,4,4)">
        <path d="M145.5,-1C226.356,-1 292,64.644 292,145.5C292,226.356 226.356,292 145.5,292C64.644,292 -1,226.356 -1,145.5C-1,64.644 64.644,-1 145.5,-1ZM145.5,9C220.836,9 282,70.164 282,145.5C282,220.836 220.836,282 145.5,282C70.164,282 9,220.836 9,145.5C9,70.164 70.164,9 145.5,9Z" style="fill:rgb(178,210,255);"/>
    </g>
    <g id="responsive_design" transform="matrix(6.09375,0,0,6.09375,146.5,149.5)">
        <g transform="matrix(1,0,0,1,-16,-16)">
            <g id="adaptive_responsive_design_1_">
                <g>
                    <g>
                        <path d="M1.5,20C1.224,20 1,19.776 1,19.5L1,3.5C1,2.673 1.673,2 2.5,2L29.5,2C30.327,2 31,2.673 31,3.5L31,5C31,5.276 30.776,5.5 30.5,5.5C30.224,5.5 30,5.276 30,5L30,3.5C30,3.225 29.775,3 29.5,3L2.5,3C2.225,3 2,3.225 2,3.5L2,19.5C2,19.776 1.776,20 1.5,20Z" style="fill:rgb(178,210,255);fill-rule:nonzero;"/>
                    </g>
                    <path d="M16,31L10.5,31C10.224,31 10,30.776 10,30.5C10,30.224 10.224,30 10.5,30L11.5,30C12.327,30 13,29.327 13,28.5L13,26C13,25.724 13.224,25.5 13.5,25.5C13.776,25.5 14,25.724 14,26L14,28.5C14,29.063 13.813,29.582 13.499,30L16,30C16.276,30 16.5,30.224 16.5,30.5C16.5,30.776 16.276,31 16,31Z" style="fill:rgb(178,210,255);fill-rule:nonzero;"/>
                    <path d="M15.5,26L2.5,26C1.673,26 1,25.327 1,24.5L1,21.5C1,21.224 1.224,21 1.5,21L15.5,21C15.776,21 16,21.224 16,21.5C16,21.776 15.776,22 15.5,22L2,22L2,24.5C2,24.775 2.225,25 2.5,25L15.5,25C15.776,25 16,25.224 16,25.5C16,25.776 15.776,26 15.5,26Z" style="fill:rgb(178,210,255);fill-rule:nonzero;"/>
                </g>
                <g>
                    <g>
                        <g>
                            <path d="M21.5,9L26.5,9C26.776,9 27,8.776 27,8.5C27,8.224 26.776,8 26.5,8L21.5,8C21.224,8 21,8.224 21,8.5C21,8.776 21.224,9 21.5,9Z" style="fill:rgb(178,210,255);fill-rule:nonzero;"/>
                        </g>
                    </g>
                    <g>
                        <g>
                            <path d="M23.5,29L24.5,29C24.776,29 25,28.776 25,28.5C25,28.224 24.776,28 24.5,28L23.5,28C23.224,28 23,28.224 23,28.5C23,28.776 23.224,29 23.5,29Z" style="fill:rgb(178,210,255);fill-rule:nonzero;"/>
                        </g>
                    </g>
                    <path d="M28.5,31L19.5,31C18.121,31 17,29.879 17,28.5L17,8.5C17,7.121 18.121,6 19.5,6L28.5,6C29.879,6 31,7.121 31,8.5L31,28.5C31,29.879 29.879,31 28.5,31ZM19.5,7C18.673,7 18,7.673 18,8.5L18,28.5C18,29.327 18.673,30 19.5,30L28.5,30C29.327,30 30,29.327 30,28.5L30,8.5C30,7.673 29.327,7 28.5,7L19.5,7Z" style="fill:rgb(178,210,255);fill-rule:nonzero;"/>
                </g>
            </g>
        </g>
    </g>
</svg>
